{"accessors":[{"bufferView":0,"componentType":5126,"count":4,"max":[1,0,1],"min":[-1,0,-1],"type":"VEC3"},{"bufferView":1,"componentType":5126,"count":4,"type":"VEC3"},{"bufferView":2,"componentType":5126,"count":4,"type":"VEC4"},{"bufferView":3,"componentType":5126,"count":4,"type":"VEC2"},{"bufferView":4,"componentType":5121,"count":6,"type":"SCALAR"},{"bufferView":5,"componentType":5126,"count":24,"max":[0.05000043660402298,8,10],"min":[-0.05000043660402298,0,-10],"type":"VEC3"},{"bufferView":6,"componentType":5126,"count":24,"type":"VEC3"},{"bufferView":7,"componentType":5121,"count":36,"type":"SCALAR"},{"bufferView":8,"componentType":5126,"count":24,"max":[0.05000043660402298,8,10],"min":[-0.05000043660402298,0,-10],"type":"VEC3"},{"bufferView":9,"componentType":5126,"count":24,"type":"VEC3"},{"bufferView":10,"componentType":5121,"count":36,"type":"SCALAR"},{"bufferView":11,"componentType":5126,"count":24,"max":[13,8,0.05000000074505806],"min":[-13,0,-0.05000000074505806],"type":"VEC3"},{"bufferView":12,"componentType":5126,"count":24,"type":"VEC3"},{"bufferView":13,"componentType":5121,"count":36,"type":"SCALAR"},{"bufferView":14,"componentType":5126,"count":24,"max":[13,8,0.05000000074505806],"min":[-13,0,-0.05000000074505806],"type":"VEC3"},{"bufferView":15,"componentType":5126,"count":24,"type":"VEC3"},{"bufferView":16,"componentType":5121,"count":36,"type":"SCALAR"},{"bufferView":17,"componentType":5126,"count":482,"max":[0.7500001788139343,0.25,0.7500000596046448],"min":[-0.7499998807907104,-0.25,-0.7499998211860657],"type":"VEC3"},{"bufferView":18,"componentType":5126,"count":482,"type":"VEC3"},{"bufferView":19,"componentType":5123,"count":2880,"type":"SCALAR"},{"bufferView":20,"componentType":5126,"count":24,"max":[1.3499999046325684,1.3499999046325684,1.3499999046325684],"min":[-1.3499999046325684,-1.3499999046325684,-1.3499999046325684],"type":"VEC3"},{"bufferView":21,"componentType":5126,"count":24,"type":"VEC3"},{"bufferView":22,"componentType":5126,"count":24,"type":"VEC4"},{"bufferView":23,"componentType":5126,"count":24,"type":"VEC2"},{"bufferView":24,"componentType":5121,"count":36,"type":"SCALAR"},{"bufferView":25,"componentType":5126,"count":24,"max":[1.7999999523162842,1.7999999523162842,1.7999999523162842],"min":[-1.7999999523162842,-1.7999999523162842,-1.7999999523162842],"type":"VEC3"},{"bufferView":26,"componentType":5126,"count":24,"type":"VEC3"},{"bufferView":27,"componentType":5126,"count":24,"type":"VEC4"},{"bufferView":28,"componentType":5126,"count":24,"type":"VEC2"},{"bufferView":29,"componentType":5121,"count":36,"type":"SCALAR"},{"bufferView":30,"componentType":5126,"count":192,"max":[1,1.5,1],"min":[-1,-1.5,-1],"type":"VEC3"},{"bufferView":31,"componentType":5126,"count":192,"type":"VEC3"},{"bufferView":32,"componentType":5126,"count":192,"type":"VEC4"},{"bufferView":33,"componentType":5126,"count":192,"type":"VEC2"},{"bufferView":34,"componentType":5121,"count":372,"type":"SCALAR"},{"bufferView":35,"componentType":5126,"count":24,"max":[1.5,1.5,2.75],"min":[-1.5,-1.5,-2.75],"type":"VEC3"},{"bufferView":36,"componentType":5126,"count":24,"type":"VEC3"},{"bufferView":37,"componentType":5126,"count":24,"type":"VEC4"},{"bufferView":38,"componentType":5126,"count":24,"type":"VEC2"},{"bufferView":39,"componentType":5121,"count":36,"type":"SCALAR"},{"bufferView":40,"componentType":5126,"count":24,"max":[1.5,1.5,1.5],"min":[-1.5,-1.5,-1.5],"type":"VEC3"},{"bufferView":41,"componentType":5126,"count":24,"type":"VEC3"},{"bufferView":42,"componentType":5126,"count":24,"type":"VEC4"},{"bufferView":43,"componentType":5126,"count":24,"type":"VEC2"},{"bufferView":44,"componentType":5121,"count":36,"type":"SCALAR"},{"bufferView":45,"componentType":5126,"count":24,"max":[2,2,2],"min":[-2,-2,-2],"type":"VEC3"},{"bufferView":46,"componentType":5126,"count":24,"type":"VEC3"},{"bufferView":47,"componentType":5126,"count":24,"type":"VEC4"},{"bufferView":48,"componentType":5126,"count":24,"type":"VEC2"},{"bufferView":49,"componentType":5121,"count":36,"type":"SCALAR"},{"bufferView":50,"componentType":5126,"count":24,"max":[1.5,1.5,1.5],"min":[-1.5,-1.5,-1.5],"type":"VEC3"},{"bufferView":51,"componentType":5126,"count":24,"type":"VEC3"},{"bufferView":52,"componentType":5126,"count":24,"type":"VEC4"},{"bufferView":53,"componentType":5126,"count":24,"type":"VEC2"},{"bufferView":54,"componentType":5121,"count":36,"type":"SCALAR"},{"bufferView":55,"componentType":5126,"count":24,"max":[2,2,2],"min":[-2,-2,-2],"type":"VEC3"},{"bufferView":56,"componentType":5126,"count":24,"type":"VEC3"},{"bufferView":57,"componentType":5126,"count":24,"type":"VEC4"},{"bufferView":58,"componentType":5126,"count":24,"type":"VEC2"},{"bufferView":59,"componentType":5121,"count":36,"type":"SCALAR"},{"bufferView":60,"componentType":5126,"count":24,"max":[1.125,1.125,1.125],"min":[-1.125,-1.125,-1.125],"type":"VEC3"},{"bufferView":61,"componentType":5126,"count":24,"type":"VEC3"},{"bufferView":62,"componentType":5126,"count":24,"type":"VEC4"},{"bufferView":63,"componentType":5126,"count":24,"type":"VEC2"},{"bufferView":64,"componentType":5121,"count":36,"type":"SCALAR"},{"bufferView":65,"componentType":5126,"count":24,"max":[1.5,1.5,1.5],"min":[-1.5,-1.5,-1.5],"type":"VEC3"},{"bufferView":66,"componentType":5126,"count":24,"type":"VEC3"},{"bufferView":67,"componentType":5126,"count":24,"type":"VEC4"},{"bufferView":68,"componentType":5126,"count":24,"type":"VEC2"},{"bufferView":69,"componentType":5121,"count":36,"type":"SCALAR"},{"bufferView":70,"componentType":5126,"count":192,"max":[1,1.5,1],"min":[-1,-1.5,-1],"type":"VEC3"},{"bufferView":71,"componentType":5126,"count":192,"type":"VEC3"},{"bufferView":72,"componentType":5126,"count":192,"type":"VEC4"},{"bufferView":73,"componentType":5126,"count":192,"type":"VEC2"},{"bufferView":74,"componentType":5121,"count":372,"type":"SCALAR"},{"bufferView":75,"componentType":5126,"count":192,"max":[1,1.5,1],"min":[-1,-1.5,-1],"type":"VEC3"},{"bufferView":76,"componentType":5126,"count":192,"type":"VEC3"},{"bufferView":77,"componentType":5126,"count":192,"type":"VEC4"},{"bufferView":78,"componentType":5126,"count":192,"type":"VEC2"},{"bufferView":79,"componentType":5121,"count":372,"type":"SCALAR"},{"bufferView":80,"componentType":5126,"count":482,"max":[0.7500001788139343,0.25,0.7500000596046448],"min":[-0.7499998807907104,-0.25,-0.7499998211860657],"type":"VEC3"},{"bufferView":81,"componentType":5126,"count":482,"type":"VEC3"},{"bufferView":82,"componentType":5123,"count":2880,"type":"SCALAR"},{"bufferView":83,"componentType":5126,"count":1984,"max":[0.30000007152557373,0.30000001192092896,0.2999999523162842],"min":[-0.2999999523162842,-0.30000001192092896,-0.30000007152557373],"type":"VEC3"},{"bufferView":84,"componentType":5126,"count":1984,"type":"VEC3"},{"bufferView":85,"componentType":5123,"count":2880,"type":"SCALAR"},{"bufferView":86,"componentType":5126,"count":88,"max":[0.5000000596046448,3.9242913722991943,2],"min":[-0.5000000596046448,-3,-2],"type":"VEC3"},{"bufferView":87,"componentType":5126,"count":88,"type":"VEC3"},{"bufferView":88,"componentType":5126,"count":88,"type":"VEC4"},{"bufferView":89,"componentType":5126,"count":88,"type":"VEC2"},{"bufferView":90,"componentType":5121,"count":132,"type":"SCALAR"},{"bufferView":91,"componentType":5126,"count":192,"max":[0.25,1.0236592292785645,0.25],"min":[-0.25,-1.0236592292785645,-0.25],"type":"VEC3"},{"bufferView":92,"componentType":5126,"count":192,"type":"VEC3"},{"bufferView":93,"componentType":5126,"count":192,"type":"VEC2"},{"bufferView":94,"componentType":5121,"count":372,"type":"SCALAR"},{"bufferView":95,"componentType":5126,"count":192,"max":[0.25,1.0236592292785645,0.25],"min":[-0.25,-1.0236592292785645,-0.25],"type":"VEC3"},{"bufferView":96,"componentType":5126,"count":192,"type":"VEC3"},{"bufferView":97,"componentType":5126,"count":192,"type":"VEC2"},{"bufferView":98,"componentType":5121,"count":372,"type":"SCALAR"},{"bufferView":99,"componentType":5126,"count":192,"max":[0.25,1.0236592292785645,0.25],"min":[-0.25,-1.0236592292785645,-0.25],"type":"VEC3"},{"bufferView":100,"componentType":5126,"count":192,"type":"VEC3"},{"bufferView":101,"componentType":5126,"count":192,"type":"VEC2"},{"bufferView":102,"componentType":5121,"count":372,"type":"SCALAR"},{"bufferView":103,"componentType":5126,"count":192,"max":[0.25,1.0236592292785645,0.25],"min":[-0.25,-1.0236592292785645,-0.25],"type":"VEC3"},{"bufferView":104,"componentType":5126,"count":192,"type":"VEC3"},{"bufferView":105,"componentType":5126,"count":192,"type":"VEC2"},{"bufferView":106,"componentType":5121,"count":372,"type":"SCALAR"},{"bufferView":107,"componentType":5126,"count":303,"max":[3,0.30709779262542725,3],"min":[-3,0,-3],"type":"VEC3"},{"bufferView":108,"componentType":5126,"count":303,"type":"VEC3"},{"bufferView":109,"componentType":5126,"count":303,"type":"VEC4"},{"bufferView":110,"componentType":5126,"count":303,"type":"VEC2"},{"bufferView":111,"componentType":5123,"count":372,"type":"SCALAR"},{"bufferView":112,"componentType":5126,"count":12,"max":[0.5,4.25,8],"min":[-0.5,-4.25,-8],"type":"VEC3"},{"bufferView":113,"componentType":5126,"count":12,"type":"VEC3"},{"bufferView":114,"componentType":5126,"count":12,"type":"VEC4"},{"bufferView":115,"componentType":5126,"count":12,"type":"VEC2"},{"bufferView":116,"componentType":5121,"count":18,"type":"SCALAR"},{"bufferView":117,"componentType":5126,"count":192,"max":[0.5730301737785339,1.0098481178283691,0.5730301737785339],"min":[-0.5730301737785339,-1.0098481178283691,-0.5730301737785339],"type":"VEC3"},{"bufferView":118,"componentType":5126,"count":192,"type":"VEC3"},{"bufferView":119,"componentType":5121,"count":372,"type":"SCALAR"},{"bufferView":120,"componentType":5126,"count":24,"max":[9.836387634277344,8,10],"min":[-15.163612365722656,0,-10],"type":"VEC3"},{"bufferView":121,"componentType":5126,"count":24,"type":"VEC3"},{"bufferView":122,"componentType":5126,"count":24,"type":"VEC4"},{"bufferView":123,"componentType":5126,"count":24,"type":"VEC2"},{"bufferView":124,"componentType":5121,"count":36,"type":"SCALAR"}],"asset":{"generator":"Khronos Blender glTF 2.0 I/O","version":"2.0"},"bufferViews":[{"buffer":0,"byteLength":48,"byteOffset":0},{"buffer":0,"byteLength":48,"byteOffset":48},{"buffer":0,"byteLength":64,"byteOffset":96},{"buffer":0,"byteLength":32,"byteOffset":160},{"buffer":0,"byteLength":6,"byteOffset":192},{"buffer":0,"byteLength":288,"byteOffset":200},{"buffer":0,"byteLength":288,"byteOffset":488},{"buffer":0,"byteLength":36,"byteOffset":776},{"buffer":0,"byteLength":288,"byteOffset":812},{"buffer":0,"byteLength":288,"byteOffset":1100},{"buffer":0,"byteLength":36,"byteOffset":1388},{"buffer":0,"byteLength":288,"byteOffset":1424},{"buffer":0,"byteLength":288,"byteOffset":1712},{"buffer":0,"byteLength":36,"byteOffset":2000},{"buffer":0,"byteLength":288,"byteOffset":2036},{"buffer":0,"byteLength":288,"byteOffset":2324},{"buffer":0,"byteLength":36,"byteOffset":2612},{"buffer":0,"byteLength":5784,"byteOffset":2648},{"buffer":0,"byteLength":5784,"byteOffset":8432},{"buffer":0,"byteLength":5760,"byteOffset":14216},{"buffer":0,"byteLength":288,"byteOffset":19976},{"buffer":0,"byteLength":288,"byteOffset":20264},{"buffer":0,"byteLength":384,"byteOffset":20552},{"buffer":0,"byteLength":192,"byteOffset":20936},{"buffer":0,"byteLength":36,"byteOffset":21128},{"buffer":0,"byteLength":288,"byteOffset":21164},{"buffer":0,"byteLength":288,"byteOffset":21452},{"buffer":0,"byteLength":384,"byteOffset":21740},{"buffer":0,"byteLength":192,"byteOffset":22124},{"buffer":0,"byteLength":36,"byteOffset":22316},{"buffer":0,"byteLength":2304,"byteOffset":22352},{"buffer":0,"byteLength":2304,"byteOffset":24656},{"buffer":0,"byteLength":3072,"byteOffset":26960},{"buffer":0,"byteLength":1536,"byteOffset":30032},{"buffer":0,"byteLength":372,"byteOffset":31568},{"buffer":0,"byteLength":288,"byteOffset":31940},{"buffer":0,"byteLength":288,"byteOffset":32228},{"buffer":0,"byteLength":384,"byteOffset":32516},{"buffer":0,"byteLength":192,"byteOffset":32900},{"buffer":0,"byteLength":36,"byteOffset":33092},{"buffer":0,"byteLength":288,"byteOffset":33128},{"buffer":0,"byteLength":288,"byteOffset":33416},{"buffer":0,"byteLength":384,"byteOffset":33704},{"buffer":0,"byteLength":192,"byteOffset":34088},{"buffer":0,"byteLength":36,"byteOffset":34280},{"buffer":0,"byteLength":288,"byteOffset":34316},{"buffer":0,"byteLength":288,"byteOffset":34604},{"buffer":0,"byteLength":384,"byteOffset":34892},{"buffer":0,"byteLength":192,"byteOffset":35276},{"buffer":0,"byteLength":36,"byteOffset":35468},{"buffer":0,"byteLength":288,"byteOffset":35504},{"buffer":0,"byteLength":288,"byteOffset":35792},{"buffer":0,"byteLength":384,"byteOffset":36080},{"buffer":0,"byteLength":192,"byteOffset":36464},{"buffer":0,"byteLength":36,"byteOffset":36656},{"buffer":0,"byteLength":288,"byteOffset":36692},{"buffer":0,"byteLength":288,"byteOffset":36980},{"buffer":0,"byteLength":384,"byteOffset":37268},{"buffer":0,"byteLength":192,"byteOffset":37652},{"buffer":0,"byteLength":36,"byteOffset":37844},{"buffer":0,"byteLength":288,"byteOffset":37880},{"buffer":0,"byteLength":288,"byteOffset":38168},{"buffer":0,"byteLength":384,"byteOffset":38456},{"buffer":0,"byteLength":192,"byteOffset":38840},{"buffer":0,"byteLength":36,"byteOffset":39032},{"buffer":0,"byteLength":288,"byteOffset":39068},{"buffer":0,"byteLength":288,"byteOffset":39356},{"buffer":0,"byteLength":384,"byteOffset":39644},{"buffer":0,"byteLength":192,"byteOffset":40028},{"buffer":0,"byteLength":36,"byteOffset":40220},{"buffer":0,"byteLength":2304,"byteOffset":40256},{"buffer":0,"byteLength":2304,"byteOffset":42560},{"buffer":0,"byteLength":3072,"byteOffset":44864},{"buffer":0,"byteLength":1536,"byteOffset":47936},{"buffer":0,"byteLength":372,"byteOffset":49472},{"buffer":0,"byteLength":2304,"byteOffset":49844},{"buffer":0,"byteLength":2304,"byteOffset":52148},{"buffer":0,"byteLength":3072,"byteOffset":54452},{"buffer":0,"byteLength":1536,"byteOffset":57524},{"buffer":0,"byteLength":372,"byteOffset":59060},{"buffer":0,"byteLength":5784,"byteOffset":59432},{"buffer":0,"byteLength":5784,"byteOffset":65216},{"buffer":0,"byteLength":5760,"byteOffset":71000},{"buffer":0,"byteLength":23808,"byteOffset":76760},{"buffer":0,"byteLength":23808,"byteOffset":100568},{"buffer":0,"byteLength":5760,"byteOffset":124376},{"buffer":0,"byteLength":1056,"byteOffset":130136},{"buffer":0,"byteLength":1056,"byteOffset":131192},{"buffer":0,"byteLength":1408,"byteOffset":132248},{"buffer":0,"byteLength":704,"byteOffset":133656},{"buffer":0,"byteLength":132,"byteOffset":134360},{"buffer":0,"byteLength":2304,"byteOffset":134492},{"buffer":0,"byteLength":2304,"byteOffset":136796},{"buffer":0,"byteLength":1536,"byteOffset":139100},{"buffer":0,"byteLength":372,"byteOffset":140636},{"buffer":0,"byteLength":2304,"byteOffset":141008},{"buffer":0,"byteLength":2304,"byteOffset":143312},{"buffer":0,"byteLength":1536,"byteOffset":145616},{"buffer":0,"byteLength":372,"byteOffset":147152},{"buffer":0,"byteLength":2304,"byteOffset":147524},{"buffer":0,"byteLength":2304,"byteOffset":149828},{"buffer":0,"byteLength":1536,"byteOffset":152132},{"buffer":0,"byteLength":372,"byteOffset":153668},{"buffer":0,"byteLength":2304,"byteOffset":154040},{"buffer":0,"byteLength":2304,"byteOffset":156344},{"buffer":0,"byteLength":1536,"byteOffset":158648},{"buffer":0,"byteLength":372,"byteOffset":160184},{"buffer":0,"byteLength":3636,"byteOffset":160556},{"buffer":0,"byteLength":3636,"byteOffset":164192},{"buffer":0,"byteLength":4848,"byteOffset":167828},{"buffer":0,"byteLength":2424,"byteOffset":172676},{"buffer":0,"byteLength":744,"byteOffset":175100},{"buffer":0,"byteLength":144,"byteOffset":175844},{"buffer":0,"byteLength":144,"byteOffset":175988},{"buffer":0,"byteLength":192,"byteOffset":176132},{"buffer":0,"byteLength":96,"byteOffset":176324},{"buffer":0,"byteLength":18,"byteOffset":176420},{"buffer":0,"byteLength":2304,"byteOffset":176440},{"buffer":0,"byteLength":2304,"byteOffset":178744},{"buffer":0,"byteLength":372,"byteOffset":181048},{"buffer":0,"byteLength":288,"byteOffset":181420},{"buffer":0,"byteLength":288,"byteOffset":181708},{"buffer":0,"byteLength":384,"byteOffset":181996},{"buffer":0,"byteLength":192,"byteOffset":182380},{"buffer":0,"byteLength":36,"byteOffset":182572}],"buffers":[{"byteLength":182608,"uri":"data:application/octet-stream;base64,"}],"extensions":{},"materials":[{"pbrMetallicRoughness":{}},{"pbrMetallicRoughness":{}},{"pbrMetallicRoughness":{}},{"pbrMetallicRoughness":{}},{"pbrMetallicRoughness":{}},{"pbrMetallicRoughness":{}},{"pbrMetallicRoughness":{}}],"meshes":[{"name":"Plane","primitives":[{"attributes":{"NORMAL":1,"POSITION":0,"TANGENT":2,"TEXCOORD_0":3},"indices":4,"material":0}]},{"name":"Cube.013","primitives":[{"attributes":{"NORMAL":6,"POSITION":5},"indices":7,"material":1}]},{"name":"Cube.012","primitives":[{"attributes":{"NORMAL":9,"POSITION":8},"indices":10,"material":1}]},{"name":"Cube.011","primitives":[{"attributes":{"NORMAL":12,"POSITION":11},"indices":13,"material":1}]},{"name":"Cube","primitives":[{"attributes":{"NORMAL":15,"POSITION":14},"indices":16,"material":1}]},{"name":"Sphere.002","primitives":[{"attributes":{"NORMAL":18,"POSITION":17},"indices":19,"material":1}]},{"name":"Cube.010","primitives":[{"attributes":{"NORMAL":21,"POSITION":20,"TANGENT":22,"TEXCOORD_0":23},"indices":24,"material":2}]},{"name":"Cube.009","primitives":[{"attributes":{"NORMAL":26,"POSITION":25,"TANGENT":27,"TEXCOORD_0":28},"indices":29,"material":2}]},{"name":"Cylinder.007","primitives":[{"attributes":{"NORMAL":31,"POSITION":30,"TANGENT":32,"TEXCOORD_0":33},"indices":34,"material":3}]},{"name":"Cube.008","primitives":[{"attributes":{"NORMAL":36,"POSITION":35,"TANGENT":37,"TEXCOORD_0":38},"indices":39,"material":2}]},{"name":"Cube.006","primitives":[{"attributes":{"NORMAL":41,"POSITION":40,"TANGENT":42,"TEXCOORD_0":43},"indices":44,"material":2}]},{"name":"Cube.007","primitives":[{"attributes":{"NORMAL":46,"POSITION":45,"TANGENT":47,"TEXCOORD_0":48},"indices":49,"material":2}]},{"name":"Cube.004","primitives":[{"attributes":{"NORMAL":51,"POSITION":50,"TANGENT":52,"TEXCOORD_0":53},"indices":54,"material":2}]},{"name":"Cube.003","primitives":[{"attributes":{"NORMAL":56,"POSITION":55,"TANGENT":57,"TEXCOORD_0":58},"indices":59,"material":2}]},{"name":"Cube.005","primitives":[{"attributes":{"NORMAL":61,"POSITION":60,"TANGENT":62,"TEXCOORD_0":63},"indices":64,"material":2}]},{"name":"Cube.000","primitives":[{"attributes":{"NORMAL":66,"POSITION":65,"TANGENT":67,"TEXCOORD_0":68},"indices":69,"material":2}]},{"name":"Cylinder.006","primitives":[{"attributes":{"NORMAL":71,"POSITION":70,"TANGENT":72,"TEXCOORD_0":73},"indices":74,"material":3}]},{"name":"Cylinder.005","primitives":[{"attributes":{"NORMAL":76,"POSITION":75,"TANGENT":77,"TEXCOORD_0":78},"indices":79,"material":3}]},{"name":"Sphere.001","primitives":[{"attributes":{"NORMAL":81,"POSITION":80},"indices":82,"material":1}]},{"name":"Sphere","primitives":[{"attributes":{"NORMAL":84,"POSITION":83},"indices":85,"material":1}]},{"name":"Cube.002","primitives":[{"attributes":{"NORMAL":87,"POSITION":86,"TANGENT":88,"TEXCOORD_0":89},"indices":90,"material":4}]},{"name":"Cylinder.001","primitives":[{"attributes":{"NORMAL":92,"POSITION":91,"TEXCOORD_0":93},"indices":94,"material":4}]},{"name":"Cylinder.002","primitives":[{"attributes":{"NORMAL":96,"POSITION":95,"TEXCOORD_0":97},"indices":98,"material":4}]},{"name":"Cylinder.003","primitives":[{"attributes":{"NORMAL":100,"POSITION":99,"TEXCOORD_0":101},"indices":102,"material":4}]},{"name":"Cylinder.004","primitives":[{"attributes":{"NORMAL":104,"POSITION":103,"TEXCOORD_0":105},"indices":106,"material":4}]},{"name":"Circle","primitives":[{"attributes":{"NORMAL":108,"POSITION":107,"TANGENT":109,"TEXCOORD_0":110},"indices":111,"material":4}]},{"name":"Cube.001","primitives":[{"attributes":{"NORMAL":113,"POSITION":112,"TANGENT":114,"TEXCOORD_0":115},"indices":116,"material":5}]},{"name":"Cylinder","primitives":[{"attributes":{"NORMAL":118,"POSITION":117},"indices":119}]},{"name":"Plane.001","primitives":[{"attributes":{"NORMAL":121,"POSITION":120,"TANGENT":122,"TEXCOORD_0":123},"indices":124,"material":6}]}],"nodes":[{"mesh":0,"name":"Floor","scale":[12.5,1,10]},{"mesh":1,"name":"Wall_Block_4","translation":[-12.313629150390625,0,0]},{"mesh":2,"name":"Wall_Block_3","translation":[12.586370468139648,0,0]},{"mesh":3,"name":"Wall_Block_2","translation":[0.3863711357116699,0,10]},{"mesh":4,"name":"Wall_Block_1","translation":[0.3863711357116699,0,-10]},{"name":"Lamp1","rotation":[0.16907575726509094,0.7558802962303162,-0.27217137813568115,0.570947527885437],"scale":[1,1,0.9999999403953552],"translation":[7.798437595367432,6.5,-5]},{"mesh":5,"name":"LightBulb1","translation":[7.798437595367432,8,-5]},{"mesh":6,"name":"BoxS1.002","rotation":[0,1.4901161193847656e-08,0,1],"translation":[-9.5367431640625e-07,3.1499996185302734,0]},{"children":[7],"mesh":7,"name":"Box2.002","translation":[-10.360099792480469,1.6779747009277344,-8.030802726745605]},{"mesh":8,"name":"Barrel2","translation":[1.1999415159225464,1.4223941564559937,8.959160804748535]},{"mesh":9,"name":"Box2.001","translation":[-10.761985778808594,1.4574003219604492,1.9475113153457642]},{"mesh":10,"name":"BoxS1.001","translation":[0,3.500000238418579,0]},{"children":[11],"mesh":11,"name":"Box2","translation":[-10.217033386230469,1.9340016841888428,6.722259998321533]},{"mesh":12,"name":"BoxS1","translation":[0,3.500000238418579,-2.384185791015625e-07]},{"children":[13],"mesh":13,"name":"Box1","translation":[5.354804039001465,1.979175329208374,2.9531450271606445]},{"mesh":14,"name":"BoxS0","translation":[0,2.625,0.6307559609413147]},{"children":[15],"mesh":15,"name":"Box0","translation":[5.883106708526611,1.4837912321090698,-0.8419473171234131]},{"mesh":16,"name":"Barrel1","translation":[11.35950756072998,1.3896430730819702,-6.956578254699707]},{"mesh":17,"name":"Barrel0","translation":[11.415812492370605,1.3910516500473022,-8.956578254699707]},{"mesh":18,"name":"LightBulb0","translation":[-2.2015624046325684,8,0]},{"mesh":19,"name":"Door_Handle","translation":[0.3599996566772461,0.09789490699768066,1]},{"children":[20],"mesh":20,"name":"Door","translation":[-12.345039367675781,2.9608964920043945,-4]},{"mesh":21,"name":"leg1","translation":[2.5,-0.9629930257797241,0]},{"mesh":22,"name":"leg2","translation":[-2.5,-0.9629930257797241,0]},{"mesh":23,"name":"leg3","translation":[0,-0.9629930257797241,-2.5]},{"mesh":24,"name":"leg4","translation":[0,-0.9629930257797241,2.5]},{"children":[22,23,24,25],"mesh":25,"name":"Table","translation":[-2.2015624046325684,1.899999976158142,0]},{"mesh":26,"name":"Wall","translation":[2.7984375953674316,4,2.052095890045166]},{"mesh":27,"name":"Player","scale":[0.8725544214248657,1,0.8725544214248657],"translation":[9.5,0.9397013783454895,5.633543014526367]},{"mesh":28,"name":"Room","translation":[2.6491968631744385,-0.10174761712551117,0]},{"name":"Lamp0","rotation":[0.16907575726509094,0.7558802962303162,-0.27217137813568115,0.570947527885437],"scale":[1,1,0.9999999403953552],"translation":[-2.2015624046325684,6.5,0]}],"scene":0,"scenes":[{"name":"Scene","nodes":[0,1,2,3,4,5,6,8,9,10,12,14,16,17,18,19,21,26,27,28,29,30]}]}
