{"accessors":[{"bufferView":0,"componentType":5121,"count":372,"max":[191],"min":[0],"type":"SCALAR"},{"bufferView":1,"componentType":5126,"count":192,"max":[1.0,1.0,1.0],"min":[-1.0,-1.0,-1.0],"type":"VEC3"},{"bufferView":2,"componentType":5126,"count":192,"max":[0.9951847195625305,1.0,0.9951847195625305],"min":[-0.9951847791671753,-1.0,-0.9951847791671753],"type":"VEC3"},{"bufferView":3,"componentType":5126,"count":192,"max":[0.9800440073013306,0.956661194562912],"min":[0.021775439381599426,0.013237476348876953],"type":"VEC2"}],"asset":{"generator":"Khronos Blender glTF 2.0 exporter","version":"2.0"},"bufferViews":[{"buffer":0,"byteLength":372,"byteOffset":0,"target":34963},{"buffer":0,"byteLength":2304,"byteOffset":372,"target":34962},{"buffer":0,"byteLength":2304,"byteOffset":2676,"target":34962},{"buffer":0,"byteLength":1536,"byteOffset":4980,"target":34962}],"buffers":[{"byteLength":6516,"uri":"data:application/octet-stream;base64,"}],"images":[{"mimeType":"image/jpeg","name":"barreltxt","uri":"data:image/jpeg;base64,"}],"materials":[{"alphaMode":"BLEND","name":"barrel_texture","pbrMetallicRoughness":{"baseColorTexture":{"index":0},"metallicFactor":0.0,"roughnessFactor":0.0}}],"meshes":[{"name":"Cylinder.001","primitives":[{"attributes":{"NORMAL":2,"POSITION":1,"TEXCOORD_0":3},"indices":0,"material":0}]}],"nodes":[{"mesh":0,"name":"Barrel","scale":[0.8148077130317688,1.0939264297485352,0.8148077130317688]}],"samplers":[{}],"scene":0,"scenes":[{"name":"Scene","nodes":[0]}],"textures":[{"sampler":0,"source":0}]}
