{"accessors":[{"bufferView":0,"componentType":5121,"count":36,"max":[23],"min":[0],"type":"SCALAR"},{"bufferView":1,"componentType":5126,"count":24,"max":[1.0,1.0,1.0],"min":[-1.0,-1.0,-1.0],"type":"VEC3"},{"bufferView":2,"componentType":5126,"count":24,"max":[1.0,1.0,1.0],"min":[-1.0,-1.0,-1.0],"type":"VEC3"},{"bufferView":3,"componentType":5126,"count":24,"max":[1.0,1.0,-0.0,1.0],"min":[-1.0,0.0,-0.0,1.0],"type":"VEC4"},{"bufferView":4,"componentType":5126,"count":24,"max":[1.0,1.0],"min":[0.0,0.0],"type":"VEC2"}],"asset":{"generator":"Khronos Blender glTF 2.0 exporter","version":"2.0"},"bufferViews":[{"buffer":0,"byteLength":36,"byteOffset":0,"target":34963},{"buffer":0,"byteLength":288,"byteOffset":36,"target":34962},{"buffer":0,"byteLength":288,"byteOffset":324,"target":34962},{"buffer":0,"byteLength":384,"byteOffset":612,"target":34962},{"buffer":0,"byteLength":192,"byteOffset":996,"target":34962}],"buffers":[{"byteLength":1188,"uri":"data:application/octet-stream;base64,"}],"images":[{"mimeType":"image/jpeg","name":"wood.jpg","uri":"data:image/jpeg;base64,"}],"materials":[{"name":"wood_texture","pbrMetallicRoughness":{"baseColorTexture":{"index":0},"metallicFactor":0.0,"roughnessFactor":0.0}}],"meshes":[{"name":"Cube.001","primitives":[{"attributes":{"NORMAL":2,"POSITION":1,"TANGENT":3,"TEXCOORD_0":4},"indices":0,"material":0}]}],"nodes":[{"mesh":0,"name":"Cube","translation":[0.1963496208190918,0.0489121675491333,-0.015329360961914062]}],"samplers":[{}],"scene":0,"scenes":[{"name":"Scene","nodes":[0]}],"textures":[{"sampler":0,"source":0}]}
